<?xml version="1.0" encoding="UTF-8" standalone="no"?>
<!-- Created with Inkscape (http://www.inkscape.org/) -->

<svg
   version="1.1"
   id="svg1"
   width="1600"
   height="880"
   viewBox="0 0 1600 880"
   sodipodi:docname="Logo Đại học FPT.ai"
   xmlns:inkscape="http://www.inkscape.org/namespaces/inkscape"
   xmlns:sodipodi="http://sodipodi.sourceforge.net/DTD/sodipodi-0.dtd"
   xmlns="http://www.w3.org/2000/svg"
   xmlns:svg="http://www.w3.org/2000/svg">
  <defs
     id="defs1">
    <clipPath
       clipPathUnits="userSpaceOnUse"
       id="clipPath2">
      <path
         d="M 0,660 H 1200 V 0 H 0 Z"
         transform="translate(-397.06011,-457.77001)"
         id="path2" />
    </clipPath>
    <clipPath
       clipPathUnits="userSpaceOnUse"
       id="clipPath4">
      <path
         d="M 0,660 H 1200 V 0 H 0 Z"
         transform="translate(-411.45021,-438.91021)"
         id="path4" />
    </clipPath>
    <clipPath
       clipPathUnits="userSpaceOnUse"
       id="clipPath6">
      <path
         d="M 0,660 H 1200 V 0 H 0 Z"
         transform="translate(-861.0898,-186.02001)"
         id="path6" />
    </clipPath>
    <clipPath
       clipPathUnits="userSpaceOnUse"
       id="clipPath8">
      <path
         d="M 0,660 H 1200 V 0 H 0 Z"
         transform="translate(-77.850099,-206.81011)"
         id="path8" />
    </clipPath>
    <clipPath
       clipPathUnits="userSpaceOnUse"
       id="clipPath10">
      <path
         d="M 0,660 H 1200 V 0 H 0 Z"
         transform="translate(-194.00001,-188.48001)"
         id="path10" />
    </clipPath>
    <clipPath
       clipPathUnits="userSpaceOnUse"
       id="clipPath12">
      <path
         d="M 0,660 H 1200 V 0 H 0 Z"
         transform="translate(-242.25001,-206.75001)"
         id="path12" />
    </clipPath>
    <clipPath
       clipPathUnits="userSpaceOnUse"
       id="clipPath14">
      <path
         d="M 0,660 H 1200 V 0 H 0 Z"
         transform="translate(-355.03001,-206.77)"
         id="path14" />
    </clipPath>
    <clipPath
       clipPathUnits="userSpaceOnUse"
       id="clipPath16">
      <path
         d="M 0,660 H 1200 V 0 H 0 Z"
         transform="translate(-451.77001,-206.7598)"
         id="path16" />
    </clipPath>
    <clipPath
       clipPathUnits="userSpaceOnUse"
       id="clipPath18">
      <path
         d="M 0,660 H 1200 V 0 H 0 Z"
         transform="translate(-548.39011,-206.60011)"
         id="path18" />
    </clipPath>
    <clipPath
       clipPathUnits="userSpaceOnUse"
       id="clipPath20">
      <path
         d="M 0,660 H 1200 V 0 H 0 Z"
         transform="translate(-594.25001,-206.75001)"
         id="path20" />
    </clipPath>
    <clipPath
       clipPathUnits="userSpaceOnUse"
       id="clipPath22">
      <path
         d="M 0,660 H 1200 V 0 H 0 Z"
         transform="translate(-682.25002,-206.75001)"
         id="path22" />
    </clipPath>
    <clipPath
       clipPathUnits="userSpaceOnUse"
       id="clipPath24">
      <path
         d="M 0,660 H 1200 V 0 H 0 Z"
         transform="translate(-804.00002,-188.49021)"
         id="path24" />
    </clipPath>
    <clipPath
       clipPathUnits="userSpaceOnUse"
       id="clipPath26">
      <path
         d="M 0,660 H 1200 V 0 H 0 Z"
         transform="translate(-943.56985,-206.79981)"
         id="path26" />
    </clipPath>
    <clipPath
       clipPathUnits="userSpaceOnUse"
       id="clipPath28">
      <path
         d="M 0,660 H 1200 V 0 H 0 Z"
         transform="translate(-990.25,-206.75001)"
         id="path28" />
    </clipPath>
    <clipPath
       clipPathUnits="userSpaceOnUse"
       id="clipPath30">
      <path
         d="M 0,660 H 1200 V 0 H 0 Z"
         transform="translate(-1068.7798,-206.7598)"
         id="path30" />
    </clipPath>
    <clipPath
       clipPathUnits="userSpaceOnUse"
       id="clipPath32">
      <path
         d="M 0,660 H 1200 V 0 H 0 Z"
         transform="translate(-286.76001,-456.08981)"
         id="path32" />
    </clipPath>
    <clipPath
       clipPathUnits="userSpaceOnUse"
       id="clipPath34">
      <path
         d="M 0,660 H 1200 V 0 H 0 Z"
         transform="translate(-712.46002,-412.52981)"
         id="path34" />
    </clipPath>
    <clipPath
       clipPathUnits="userSpaceOnUse"
       id="clipPath36">
      <path
         d="M 0,660 H 1200 V 0 H 0 Z"
         transform="translate(-902.33012,-441.62011)"
         id="path36" />
    </clipPath>
    <clipPath
       clipPathUnits="userSpaceOnUse"
       id="clipPath38">
      <path
         d="M 0,660 H 1200 V 0 H 0 Z"
         transform="translate(-659.00002,-439.00001)"
         id="path38" />
    </clipPath>
    <clipPath
       clipPathUnits="userSpaceOnUse"
       id="clipPath40">
      <path
         d="M 0,660 H 1200 V 0 H 0 Z"
         transform="translate(-875.02,-433.66991)"
         id="path40" />
    </clipPath>
    <clipPath
       clipPathUnits="userSpaceOnUse"
       id="clipPath42">
      <path
         d="M 0,660 H 1200 V 0 H 0 Z"
         transform="translate(-795.08012,-416.93991)"
         id="path42" />
    </clipPath>
    <clipPath
       clipPathUnits="userSpaceOnUse"
       id="clipPath44">
      <path
         d="M 0,660 H 1200 V 0 H 0 Z"
         transform="translate(-837.9502,-395.06011)"
         id="path44" />
    </clipPath>
    <clipPath
       clipPathUnits="userSpaceOnUse"
       id="clipPath46">
      <path
         d="M 0,660 H 1200 V 0 H 0 Z"
         transform="translate(-933.37015,-414.68991)"
         id="path46" />
    </clipPath>
    <clipPath
       clipPathUnits="userSpaceOnUse"
       id="clipPath48">
      <path
         d="M 0,660 H 1200 V 0 H 0 Z"
         transform="translate(-964.99022,-420.20021)"
         id="path48" />
    </clipPath>
    <clipPath
       clipPathUnits="userSpaceOnUse"
       id="clipPath50">
      <path
         d="M 0,660 H 1200 V 0 H 0 Z"
         transform="translate(-745.18022,-422.41021)"
         id="path50" />
    </clipPath>
    <clipPath
       clipPathUnits="userSpaceOnUse"
       id="clipPath52">
      <path
         d="M 0,660 H 1200 V 0 H 0 Z"
         transform="translate(-900.00002,-422.50001)"
         id="path52" />
    </clipPath>
    <clipPath
       clipPathUnits="userSpaceOnUse"
       id="clipPath54">
      <path
         d="M 0,660 H 1200 V 0 H 0 Z"
         transform="translate(-610.75982,-353.37011)"
         id="path54" />
    </clipPath>
    <clipPath
       clipPathUnits="userSpaceOnUse"
       id="clipPath56">
      <path
         d="M 0,660 H 1200 V 0 H 0 Z"
         transform="translate(-521.79001,-439.93021)"
         id="path56" />
    </clipPath>
  </defs>
  <sodipodi:namedview
     id="namedview1"
     pagecolor="#ffffff"
     bordercolor="#000000"
     borderopacity="0.25"
     inkscape:showpageshadow="2"
     inkscape:pageopacity="0.0"
     inkscape:pagecheckerboard="0"
     inkscape:deskcolor="#d1d1d1">
    <inkscape:page
       x="0"
       y="0"
       inkscape:label="1"
       id="page1"
       width="1600"
       height="880"
       margin="153.56134 55.919998 165.33333 103.61333"
       bleed="0" />
  </sodipodi:namedview>
  <g
     id="layer-MC0"
     inkscape:groupmode="layer"
     inkscape:label="Layer 1">
    <path
       id="path1"
       d="m 0,0 c -6.58,-27.74 -12.83,-55.56 -19.26,-83.34 8.25,-0.39 16.13,4.49 20.34,11.43 3.52,6.43 3.86,13.98 5.94,20.91 14.3,0.01 28.6,-0.08 42.9,0.04 5.54,-0.04 10.92,2.58 14.3,6.97 5.69,6.72 6.06,15.9 8.37,24.03 1.48,5.12 1.27,11.21 -2.56,15.28 C 66.84,-0.92 61.7,0.1 57,-0.01 38,-0.01 19,-0.05 0,0 m 23.83,75.25 c 5.78,2.17 11.98,2.94 18.12,2.98 22.12,-0.01 44.23,0 66.35,0 C 92.85,10.97 77.27,-56.25 61.75,-123.49 57.03,-144.36 37.52,-161 16.01,-161.53 c -23.39,-0.02 -46.77,0.01 -70.16,-0.01 14.8,64.31 29.71,128.6 44.52,192.91 1.15,4.61 1.84,9.35 3.49,13.81 4.89,13.8 16.14,25.22 29.97,30.07"
       style="fill:#f27024;fill-opacity:1;fill-rule:nonzero;stroke:none"
       transform="matrix(1.3333333,0,0,-1.3333333,529.41347,269.64)"
       clip-path="url(#clipPath2)" />
    <path
       id="path3"
       d="M 0,0 C 13.21,0.21 26.42,0.04 39.63,0.08 38.58,-4.41 37.53,-8.91 36.5,-13.41 23.32,-13.42 10.14,-13.43 -3.03,-13.4 -2.09,-8.92 -0.93,-4.49 0,0"
       style="fill:#f27024;fill-opacity:1;fill-rule:nonzero;stroke:none"
       transform="matrix(1.3333333,0,0,-1.3333333,548.60027,294.7864)"
       clip-path="url(#clipPath4)" />
    <path
       id="path5"
       d="m 0,0 c 1.96,10.52 10.78,19.07 21.09,21.52 10.36,2.57 23.16,0.8 29.7,-8.5 -0.12,2.57 -0.2,5.14 -0.34,7.69 6.65,0.05 13.29,0 19.94,0.03 C 70.41,11.23 70.45,1.72 70.37,-7.8 63.74,-7.71 57.11,-7.86 50.49,-7.7 47.12,-1.84 42.34,4.69 34.95,5.02 29.95,5.66 23.7,1.71 25,-3.91 c 1.41,-5.04 7.43,-6.02 11.81,-7.11 11.48,-1.98 24.09,-3.88 32.71,-12.5 11.64,-12.92 6.89,-36.69 -9,-43.99 -13.45,-6.22 -30.92,-3.73 -41.18,7.3 0.18,-2.93 0.33,-5.88 0.54,-8.81 -6.59,0.03 -13.17,-0.03 -19.75,0.04 0.13,10.18 -0.14,20.37 0.15,30.54 6.91,-0.16 13.84,-0.05 20.76,-0.07 3.86,-4.88 7.92,-10.23 14.06,-12.3 4.42,-1.46 10.1,-1.48 13.54,2.1 2.84,2.83 2.27,8.17 -1.14,10.28 -4.31,2.77 -9.62,2.91 -14.5,3.84 -9.31,1.46 -19.15,3.77 -26.25,10.38 C 0.22,-18.17 -1.73,-8.48 0,0"
       style="fill:#f27024;fill-opacity:1;fill-rule:nonzero;stroke:none"
       transform="matrix(1.3333333,0,0,-1.3333333,1148.1197,631.97333)"
       clip-path="url(#clipPath6)" />
    <path
       id="path7"
       d="m 0,0 c 26.3,-0.13 52.6,-0.01 78.9,-0.06 0,-10.91 -0.01,-21.82 0.01,-32.73 -5.26,-0.02 -10.51,-0.01 -15.77,-0.01 -1.77,4.79 -3.6,9.56 -5.22,14.41 -8.42,0.18 -16.84,0.03 -25.26,0.07 -0.02,-4.71 0.03,-9.43 -0.07,-14.14 5.52,-0.2 11.03,-0.05 16.55,-0.1 0,-6.67 0.03,-13.34 -0.01,-20.02 -5.49,0.03 -10.98,0.02 -16.47,0.01 -0.04,-6.3 0.05,-12.6 -0.06,-18.9 3.93,-0.13 7.86,-0.09 11.8,-0.09 0.01,-6.08 0,-12.16 0,-18.24 -14.83,-0.01 -29.67,-0.01 -44.5,0 0,6.08 -0.01,12.16 0,18.24 3,0.01 6,0.01 9,0.01 -0.07,17.77 0.14,35.54 -0.11,53.31 -2.98,-0.1 -5.95,-0.1 -8.93,0 C -0.02,-12.16 -0.23,-6.08 0,0"
       style="fill:#f27024;fill-opacity:1;fill-rule:nonzero;stroke:none"
       transform="matrix(1.3333333,0,0,-1.3333333,103.80013,604.2532)"
       clip-path="url(#clipPath8)" />
    <path
       id="path9"
       d="m 0,0 c -0.01,-7.24 -0.01,-14.48 0,-21.73 5.34,0.08 11.15,-0.5 15.97,2.26 6.28,3.8 5.86,14.93 -0.96,17.97 C 10.32,0.71 5.01,-0.1 0,0 m -32.4,18.34 c 15.81,-0.17 31.61,0 47.42,-0.08 7.79,-0.16 15.95,-2.54 21.46,-8.29 7.13,-7.09 8.77,-18.14 6.74,-27.66 -1.52,-7.53 -6.6,-14.26 -13.6,-17.51 -9.15,-4.66 -19.7,-3.35 -29.6,-3.52 -0.04,-4.84 -0.04,-9.68 0,-14.52 3.13,0.01 6.27,0.02 9.41,0.04 0.16,-6.07 0.01,-12.15 0.1,-18.23 -14.04,-0.03 -28.08,-0.16 -42.11,0.07 0.2,6.06 -0.06,12.12 0.17,18.17 3.05,-0.04 6.1,-0.05 9.16,-0.04 -0.01,17.75 0.02,35.5 -0.02,53.25 h -9.23 c 0.04,6.11 -0.11,12.22 0.1,18.32"
       style="fill:#f27024;fill-opacity:1;fill-rule:nonzero;stroke:none"
       transform="matrix(1.3333333,0,0,-1.3333333,258.66667,628.69333)"
       clip-path="url(#clipPath10)" />
    <path
       id="path11"
       d="m 0,0 c 25.24,0.01 50.49,-0.01 75.73,0.01 0.03,-10.67 0.01,-21.34 0.01,-32.01 -4.88,0 -9.76,-0.01 -14.63,0.01 -1.58,4.65 -2.97,9.36 -4.59,14 -2.33,-0.01 -4.66,0 -6.99,0 -0.06,-17.84 -0.03,-35.67 -0.01,-53.51 2.99,0.02 6,0.01 9,-0.04 -0.03,-6.06 -0.02,-12.13 -0.01,-18.19 -13.84,-0.02 -27.68,-0.02 -41.52,0 0.02,6.08 0,12.15 0.01,18.22 2.99,0.02 5.99,0.02 8.99,0.01 0.02,17.83 0.01,35.67 0,53.5 -2.33,0 -4.65,0 -6.97,-0.01 -1.41,-4.69 -3.01,-9.32 -4.54,-13.97 C 9.65,-32.01 4.82,-32.01 -0.01,-31.99 0,-21.32 -0.01,-10.66 0,0"
       style="fill:#f27024;fill-opacity:1;fill-rule:nonzero;stroke:none"
       transform="matrix(1.3333333,0,0,-1.3333333,323,604.33333)"
       clip-path="url(#clipPath12)" />
    <path
       id="path13"
       d="m 0,0 c 13.98,-0.04 27.97,-0.02 41.95,0 -0.01,-6.11 0.11,-12.23 -0.07,-18.34 -3.14,0.08 -6.27,0.09 -9.4,0.06 0.05,-12.47 -0.14,-24.95 0.09,-37.42 -0.06,-5 2.05,-10.47 6.91,-12.57 5.64,-2.27 13.05,-2.11 17.58,2.36 2.69,2.64 3.46,6.57 3.42,10.19 -0.03,12.48 0,24.96 -0.02,37.44 -3.08,0.01 -6.15,0.01 -9.23,0 -0.03,6.09 -0.01,12.18 -0.01,18.26 13.91,0.01 27.82,-0.01 41.73,0.01 0.01,-6.09 0.06,-12.19 -0.03,-18.29 -2.91,0.03 -5.81,0.04 -8.71,0 0.02,-13.47 0.01,-26.94 0.01,-40.42 -0.04,-8 -2.46,-16.31 -8.16,-22.13 -6.37,-6.72 -15.64,-9.91 -24.71,-10.52 -10.3,-0.71 -21.39,0.68 -29.95,6.89 -7.89,5.51 -12.37,15.19 -12.2,24.73 0.05,13.8 -0.03,27.61 0.05,41.41 -3.09,0.08 -6.19,0.09 -9.28,0.07 C -0.01,-12.18 -0.06,-6.09 0,0"
       style="fill:#f27024;fill-opacity:1;fill-rule:nonzero;stroke:none"
       transform="matrix(1.3333333,0,0,-1.3333333,473.37333,604.30667)"
       clip-path="url(#clipPath14)" />
    <path
       id="path15"
       d="m 0,0 c 10.7,0 21.4,-0.03 32.11,0.01 9.95,-16.25 19.7,-32.63 29.67,-48.87 -0.42,10.2 -0.33,20.42 -0.87,30.61 -3.16,-0.02 -6.31,-0.02 -9.46,0.03 0.05,6.07 0.01,12.14 0.03,18.21 13.74,0.02 27.47,-0.03 41.21,0.02 0.08,-6.08 0.03,-12.18 0.04,-18.27 -3.01,0 -6.01,0 -9,-0.02 0.04,-23.8 -0.07,-47.6 0.05,-71.4 -6.49,-0.17 -12.99,-0.02 -19.48,-0.09 -11.05,17.78 -21.71,35.8 -32.87,53.51 0.44,-11.74 0.41,-23.5 0.56,-35.25 3.16,0.01 6.32,0.01 9.49,0 0.01,-6.08 0,-12.16 0,-18.24 -13.83,0 -27.67,-0.01 -41.5,0 0,6.08 -0.01,12.16 0,18.24 3.07,0.01 6.15,0.01 9.23,-0.02 0.06,17.76 0.01,35.51 0.02,53.26 -3.1,-0.02 -6.19,0 -9.29,0.08 0.08,6.07 0,12.13 0.06,18.19"
       style="fill:#f27024;fill-opacity:1;fill-rule:nonzero;stroke:none"
       transform="matrix(1.3333333,0,0,-1.3333333,602.36,604.32027)"
       clip-path="url(#clipPath16)" />
    <path
       id="path17"
       d="m 0,0 c 14.04,0.34 28.08,0.08 42.12,0.14 -0.02,-6.08 0,-12.16 -0.01,-18.24 -3.1,0.02 -6.2,0.01 -9.29,-0.06 0.09,-17.73 0.02,-35.46 0.04,-53.19 3.06,0 6.11,0 9.18,0.04 0.14,-6.1 0.07,-12.2 0.04,-18.3 -14.01,0.11 -28.03,-0.13 -42.05,0.12 0.19,6.06 -0.04,12.12 0.15,18.18 3.06,-0.04 6.12,-0.04 9.18,-0.04 -0.01,17.75 0.01,35.5 -0.01,53.25 H 0.11 C 0.06,-12.06 0.21,-6.03 0,0"
       style="fill:#f27024;fill-opacity:1;fill-rule:nonzero;stroke:none"
       transform="matrix(1.3333333,0,0,-1.3333333,731.1868,604.5332)"
       clip-path="url(#clipPath18)" />
    <path
       id="path19"
       d="m 0,0 c 12.58,0.01 25.15,-0.02 37.73,0.01 0,-6.1 0.08,-12.2 -0.05,-18.31 -2.7,0.05 -5.38,0.06 -8.06,0.03 4.19,-14.2 8.28,-28.45 12.51,-42.65 4.49,14.14 8.45,28.44 12.72,42.64 -2.68,0.04 -5.36,0.03 -8.03,-0.01 -0.13,6.1 -0.06,12.2 -0.05,18.3 12.48,0 24.95,-0.04 37.43,0.02 0.1,-6.09 0.03,-12.18 0.05,-18.27 -2.33,0 -4.64,-0.01 -6.95,-0.02 -7.93,-23.82 -15.92,-47.61 -23.79,-71.45 -7.53,-0.07 -15.05,-0.03 -22.58,-0.02 -7.87,23.86 -15.98,47.64 -23.89,71.48 -2.31,0 -4.62,-0.02 -6.92,-0.08 C -0.14,-12.22 0.05,-6.11 0,0"
       style="fill:#f27024;fill-opacity:1;fill-rule:nonzero;stroke:none"
       transform="matrix(1.3333333,0,0,-1.3333333,792.33333,604.33333)"
       clip-path="url(#clipPath20)" />
    <path
       id="path21"
       d="m 0,0 h 80.5 c 0.01,-10.91 -0.01,-21.82 0.01,-32.73 -5.22,-0.03 -10.45,-0.01 -15.67,-0.02 -1.79,4.81 -3.65,9.59 -5.34,14.43 -8.92,0.15 -17.84,0.03 -26.75,0.06 -0.01,-4.75 -0.03,-9.5 0.02,-14.25 5.92,0 11.84,0.07 17.76,-0.04 -0.06,-6.65 -0.02,-13.3 -0.03,-19.95 -5.92,-0.01 -11.83,0.01 -17.75,0 -0.01,-6.34 -0.03,-12.67 0.02,-19.01 8.88,0.04 17.76,-0.02 26.65,0.03 1.74,5.76 3.61,11.47 5.35,17.22 5.25,0.01 10.5,0.06 15.76,-0.03 -0.06,-11.82 -0.03,-23.63 -0.02,-35.44 -26.84,-0.02 -53.68,-0.03 -80.53,0 0.02,6.07 0.02,12.14 0,18.2 3.12,-0.01 6.25,0.02 9.37,0.18 -0.24,17.69 -0.05,35.39 -0.1,53.09 -3.12,-0.03 -6.23,0 -9.34,0.13 C 0.09,-12.09 -0.04,-6.04 0,0"
       style="fill:#f27024;fill-opacity:1;fill-rule:nonzero;stroke:none"
       transform="matrix(1.3333333,0,0,-1.3333333,909.66667,604.33333)"
       clip-path="url(#clipPath22)" />
    <path
       id="path23"
       d="m 0,0 c -0.01,-6.16 -0.01,-12.32 0,-18.49 5.54,0.3 11.45,-0.94 16.7,1.36 6.22,2.81 6.13,13.46 -0.29,15.96 C 11.2,0.92 5.44,-0.31 0,0 m -32.75,18.26 c 17.58,0.02 35.17,-0.02 52.75,0.02 5.34,0.21 10.91,-0.41 15.56,-3.24 9.88,-5.59 13.11,-19.03 9.01,-29.18 -2.23,-5.47 -7.51,-8.65 -12.68,-10.91 4.23,-1.33 9.32,-3.45 10.12,-8.41 1.04,-6.53 0.25,-13.19 0.49,-19.77 2.63,-0.01 5.27,0 7.93,0.02 0.17,-6.07 0,-12.14 0.11,-18.22 -10.51,-0.13 -21.03,-0.01 -31.54,-0.06 -0.08,8.7 0.17,17.4 -0.12,26.09 -0.21,3.77 -0.58,8.42 -4.31,10.44 -4.52,2.19 -9.73,1.31 -14.57,1.46 -0.01,-6.58 -0.02,-13.16 0.02,-19.75 2.31,0.01 4.64,0.02 6.97,0.01 0.01,-6.08 0,-12.16 0.01,-18.25 -13.26,0.02 -26.52,-0.02 -39.77,0.03 0.02,6.06 0.03,12.12 0,18.18 2.98,0.06 5.96,0.06 8.95,0.01 0.18,17.73 -0.02,35.47 0.1,53.2 -3.03,0.07 -6.05,0.1 -9.07,0.13 0.07,6.07 0.02,12.13 0.04,18.2"
       style="fill:#f27024;fill-opacity:1;fill-rule:nonzero;stroke:none"
       transform="matrix(1.3333333,0,0,-1.3333333,1072,628.67973)"
       clip-path="url(#clipPath24)" />
    <path
       id="path25"
       d="m 0,0 c 13.98,-0.12 27.96,0 41.94,-0.06 -0.02,-6.08 0,-12.16 -0.01,-18.24 -3.05,-0.02 -6.1,0 -9.14,0.07 -0.25,-17.77 -0.04,-35.55 -0.1,-53.32 3.05,0 6.11,0 9.19,0.02 0.15,-6.04 -0.07,-12.09 0.14,-18.14 -14.04,-0.25 -28.09,-0.12 -42.13,-0.07 0.13,6.09 -0.13,12.18 0.17,18.26 3.03,-0.07 6.07,-0.08 9.12,-0.07 -0.01,17.75 0.01,35.5 -0.01,53.25 H -0.07 C -0.05,-12.2 -0.15,-6.1 0,0"
       style="fill:#f27024;fill-opacity:1;fill-rule:nonzero;stroke:none"
       transform="matrix(1.3333333,0,0,-1.3333333,1258.0931,604.26693)"
       clip-path="url(#clipPath26)" />
    <path
       id="path27"
       d="m 0,0 c 25.24,0.01 50.48,-0.02 75.73,0.02 0.03,-10.68 0.01,-21.35 0.01,-32.02 -4.89,0 -9.78,-0.02 -14.66,0.02 -1.42,4.69 -3.01,9.32 -4.45,13.99 -2.38,0 -4.76,-0.01 -7.12,-0.01 -0.01,-17.84 -0.02,-35.67 0.01,-53.5 3.06,0.01 6.14,0.01 9.22,0 0.01,-6.08 0,-12.16 0.01,-18.25 -13.92,0.01 -27.84,-0.01 -41.76,0.02 0.01,6.08 0,12.15 0.01,18.22 2.99,0.02 5.99,0.02 8.99,0.01 0.01,17.84 0.01,35.67 0,53.51 -2.31,0 -4.61,-0.02 -6.91,-0.04 C 17.59,-22.68 16,-27.3 14.59,-31.97 9.72,-32.02 4.85,-32.01 -0.01,-31.99 0,-21.32 -0.01,-10.66 0,0"
       style="fill:#f27024;fill-opacity:1;fill-rule:nonzero;stroke:none"
       transform="matrix(1.3333333,0,0,-1.3333333,1320.3333,604.33333)"
       clip-path="url(#clipPath28)" />
    <path
       id="path29"
       d="m 0,0 c 13.15,-0.02 26.3,-0.01 39.46,0 0.04,-6.06 -0.05,-12.11 0.06,-18.16 -2.36,-0.09 -4.72,-0.11 -7.05,-0.12 4.14,-6.83 8.38,-13.6 12.43,-20.49 4.4,6.68 8.47,13.58 12.46,20.51 -2.22,0.01 -4.44,0.01 -6.64,0 0.04,6.11 -0.13,12.23 0.11,18.33 C 63.62,-0.11 76.41,0.03 89.2,0 c 0.05,-6.05 -0.06,-12.12 0.08,-18.18 -2.33,-0.08 -4.66,-0.1 -6.97,-0.1 -8.59,-12.84 -17.54,-25.47 -25.96,-38.42 -0.37,-4.93 -0.05,-9.88 -0.11,-14.82 3.12,0 6.25,0.02 9.39,0.06 0.21,-6.08 0.01,-12.16 0.13,-18.24 -14.05,-0.05 -28.1,-0.18 -42.13,0.07 0.2,6.05 -0.02,12.1 0.15,18.15 2.99,-0.05 5.99,-0.05 9,0.06 -0.23,4.91 0.17,9.82 -0.2,14.71 -8.27,12.93 -17.14,25.48 -25.49,38.37 -2.4,0.06 -4.78,0.1 -7.15,0.16 C 0.01,-12.12 -0.08,-6.06 0,0"
       style="fill:#f27024;fill-opacity:1;fill-rule:nonzero;stroke:none"
       transform="matrix(1.3333333,0,0,-1.3333333,1425.0397,604.32027)"
       clip-path="url(#clipPath30)" />
    <path
       id="path31"
       d="m 0,0 c -6.63,-2.97 -12.47,-8.78 -13.94,-16.09 -4.98,-21.87 -10.09,-43.72 -15.07,-65.6 10.48,-0.38 20.56,7.53 22.83,17.73 1.14,4.88 2.2,9.78 3.46,14.64 10.67,-0.02 21.34,-0.04 32.01,-0.01 9.91,0.67 18.74,8.74 20.62,18.47 -16.14,0.05 -32.28,-0.01 -48.42,0.03 1.07,4.56 2.2,9.1 3.13,13.69 13.9,0.13 27.8,0 41.7,0.06 C 56.9,-17.12 66.38,-8.61 68.3,1.65 50.94,1.68 33.57,1.65 16.2,1.67 10.8,1.53 5.13,2.07 0,0 m -26.96,3.9 c 4.86,21.08 24.25,38.37 46.17,38.99 23.3,0.03 46.61,0.04 69.92,-0.01 -10.1,-43.94 -20.25,-87.87 -30.41,-131.79 -5.7,-19.18 -24.37,-33.96 -44.53,-34.18 -23.5,0 -47.01,-0.01 -70.52,0.01 9.81,42.32 19.46,84.68 29.37,126.98"
       style="fill:#0066b2;fill-opacity:1;fill-rule:nonzero;stroke:none"
       transform="matrix(1.3333333,0,0,-1.3333333,382.34667,271.88027)"
       clip-path="url(#clipPath32)" />
    <path
       id="path33"
       d="m 0,0 c -4.06,-3.62 -5.22,-9.38 -5.21,-14.59 0.13,-5.08 1.36,-10.8 5.69,-13.99 4.13,-2.99 9.71,-2.61 14.34,-1.09 -0.05,10.48 -0.09,20.96 0.02,31.44 C 9.99,3.25 4.06,3.52 0,0 m 14.78,31.71 c 3.25,0.02 6.5,0.02 9.76,0.01 C 24.55,9.28 24.53,-13.16 24.55,-35.6 17,-38.97 8.27,-39.67 0.24,-37.78 c -7.89,1.98 -13.68,9.15 -14.84,17.08 -1.56,9.08 -0.25,19.82 7.04,26.23 6,5.36 14.86,5.86 22.35,3.97 -0.01,7.4 0,14.81 -0.01,22.21"
       style="fill:#0066b2;fill-opacity:1;fill-rule:nonzero;stroke:none"
       transform="matrix(1.3333333,0,0,-1.3333333,949.94667,329.96027)"
       clip-path="url(#clipPath34)" />
    <path
       id="path35"
       d="M 0,0 C 3.78,2.08 9.25,-1.11 8.58,-5.58 8.31,-10.46 1.55,-12.34 -1.63,-8.96 -4.25,-6.36 -3.4,-1.51 0,0"
       style="fill:#0066b2;fill-opacity:1;fill-rule:nonzero;stroke:none"
       transform="matrix(1.3333333,0,0,-1.3333333,1203.1068,291.1732)"
       clip-path="url(#clipPath36)" />
    <path
       id="path37"
       d="m 0,0 c 11.25,-0.01 22.51,0.02 33.76,-0.01 -0.01,-2.91 -0.01,-5.83 -0.01,-8.74 -7.92,-0.01 -15.83,0 -23.75,-0.01 -0.01,-6.16 0,-12.32 0,-18.48 7.14,0.02 14.28,-0.07 21.41,0.06 0.08,-2.83 0.11,-5.65 0.16,-8.48 -7.19,-0.21 -14.38,-0.04 -21.57,-0.1 0.03,-6.59 -0.09,-13.19 0.08,-19.79 7.86,0.15 15.72,-0.05 23.58,0.12 0.1,-2.93 0.11,-5.87 0.1,-8.8 C 22.51,-64.28 11.25,-64.24 0,-64.25 Z"
       style="fill:#0066b2;fill-opacity:1;fill-rule:nonzero;stroke:none"
       transform="matrix(1.3333333,0,0,-1.3333333,878.66667,294.66667)"
       clip-path="url(#clipPath38)" />
    <path
       id="path39"
       d="M 0,0 C 3.26,0.95 6.5,1.99 9.79,2.86 9.68,-1.79 9.76,-6.45 9.71,-11.1 c 3.16,-0.08 6.34,-0.08 9.52,-0.07 -0.01,-2.5 0,-5 0,-7.5 H 9.74 c 0.09,-9.33 -0.2,-18.67 0.12,-27.98 0.61,-4.36 6.02,-4.68 9.39,-3.67 -0.03,-2.79 -0.03,-5.59 0,-8.39 -4.88,-1.07 -10.54,-1.52 -14.8,1.56 -3.54,2.61 -4.52,7.32 -4.48,11.47 0.01,9.01 0.01,18.01 0.01,27.01 h -6.5 c -0.01,2.51 -0.01,5.02 0,7.52 2.12,-0.01 4.26,-0.04 6.4,-0.09 C 0.02,-7.49 -0.02,-3.75 0,0"
       style="fill:#0066b2;fill-opacity:1;fill-rule:nonzero;stroke:none"
       transform="matrix(1.3333333,0,0,-1.3333333,1166.6933,301.77347)"
       clip-path="url(#clipPath40)" />
    <path
       id="path41"
       d="M 0,0 C 6.62,7.91 19.11,8.44 27.6,3.37 26.49,0.98 25.41,-1.42 24.42,-3.85 20.75,-1.89 16.28,-0.77 12.28,-2.38 7.3,-4.4 4.97,-9.97 4.51,-14.99 c -0.54,-6.05 0.2,-13.1 5.15,-17.28 4.04,-3.68 10.26,-2.85 14.66,-0.26 1.09,-2.47 2.2,-4.94 3.28,-7.43 -6.72,-3.93 -15.53,-4.46 -22.47,-0.79 -6.26,3.42 -9.85,10.34 -10.7,17.24 C -6.51,-15.41 -5.63,-6.35 0,0"
       style="fill:#0066b2;fill-opacity:1;fill-rule:nonzero;stroke:none"
       transform="matrix(1.3333333,0,0,-1.3333333,1060.1068,324.08013)"
       clip-path="url(#clipPath42)" />
    <path
       id="path43"
       d="m 0,0 c -4.4,-3.02 -3.86,-10.9 1.28,-12.84 4.74,-1.99 10.1,-1.33 14.98,-0.17 0.07,5.53 0,11.05 0.05,16.58 C 10.81,3.07 4.73,3.28 0,0 m -9.58,25.11 c 8.09,3.4 17.43,4.59 25.92,2.05 5.68,-1.65 9.28,-7.43 9.2,-13.2 C 25.6,3.3 25.5,-7.37 25.58,-18.03 18.04,-21.47 9.42,-21.89 1.32,-20.77 c -5.13,0.75 -10.6,3.33 -12.59,8.43 -2.13,5.89 -1.15,13.59 4.43,17.25 6.79,4.39 15.25,4.9 23.12,5.3 0.2,3.62 -0.18,8.2 -4.01,9.84 -6.28,2.46 -13.27,0.61 -19.28,-1.78 -0.87,2.28 -1.72,4.56 -2.57,6.84"
       style="fill:#0066b2;fill-opacity:1;fill-rule:nonzero;stroke:none"
       transform="matrix(1.3333333,0,0,-1.3333333,1117.2669,353.2532)"
       clip-path="url(#clipPath44)" />
    <path
       id="path45"
       d="m 0,0 c -5.53,-3.02 -6.72,-9.95 -6.8,-15.69 0.09,-5.59 1,-12.13 5.88,-15.65 3.8,-2.38 9.45,-1.82 12.41,1.7 3.01,3.57 3.77,8.42 3.91,12.94 0.06,4.88 -0.57,10.14 -3.6,14.15 C 9.1,0.97 3.91,1.73 0,0 M -3.01,7.72 C 2.03,9.37 7.7,9.28 12.66,7.38 c 6.82,-2.8 11.07,-9.77 12.2,-16.85 1.29,-8.12 0.47,-17.12 -4.55,-23.91 -7.09,-9.83 -23.65,-10.21 -31.27,-0.84 -5.76,6.72 -6.43,16.2 -5.27,24.61 1.13,7.45 5.77,14.91 13.22,17.33"
       style="fill:#0066b2;fill-opacity:1;fill-rule:nonzero;stroke:none"
       transform="matrix(1.3333333,0,0,-1.3333333,1244.4935,327.08013)"
       clip-path="url(#clipPath46)" />
    <path
       id="path47"
       d="m 0,0 c 7.59,2.96 15.89,3.94 23.98,3.01 4.5,-0.57 9.29,-2.34 11.94,-6.26 2.37,-3.45 2.55,-7.82 2.6,-11.87 -0.05,-10.12 0.06,-20.24 -0.06,-30.36 -3.31,0.04 -6.61,0.04 -9.9,0.01 -0.17,10.74 0.07,21.49 -0.11,32.23 0,2.94 -1.31,6.09 -4.1,7.38 -4.53,2.07 -9.73,1.16 -14.35,-0.1 0.02,-13.17 0.01,-26.33 0.01,-39.49 h -10 C 0,-30.3 0.02,-15.15 0,0"
       style="fill:#0066b2;fill-opacity:1;fill-rule:nonzero;stroke:none"
       transform="matrix(1.3333333,0,0,-1.3333333,1286.6536,319.73307)"
       clip-path="url(#clipPath48)" />
    <path
       id="path49"
       d="M 0,0 C 3.27,0.11 6.54,0.12 9.82,0.09 9.88,-10.44 9.7,-20.98 9.9,-31.5 c -0.07,-3.33 1.47,-6.96 4.8,-8.16 4.23,-1.45 8.85,-0.72 13.09,0.39 0.07,13.12 0.01,26.24 0.03,39.36 3.21,-0.01 6.42,-0.01 9.64,0.09 0.28,-15.18 0,-30.37 0.14,-45.55 -6.48,-2.86 -13.71,-3.55 -20.72,-3.21 -5.13,0.32 -10.75,1.91 -13.86,6.31 -2.74,3.69 -3.08,8.47 -2.97,12.89 0,9.8 0.09,19.59 -0.05,29.38"
       style="fill:#0066b2;fill-opacity:1;fill-rule:nonzero;stroke:none"
       transform="matrix(1.3333333,0,0,-1.3333333,993.5736,316.7864)"
       clip-path="url(#clipPath50)" />
    <path
       id="path51"
       d="M 0,0 C 3.33,0.01 6.66,0.01 10,0 V -47.75 H 0 C -0.01,-31.83 0,-15.92 0,0"
       style="fill:#0066b2;fill-opacity:1;fill-rule:nonzero;stroke:none"
       transform="matrix(1.3333333,0,0,-1.3333333,1200,316.66667)"
       clip-path="url(#clipPath52)" />
    <path
       id="path53"
       d="M 0,0 C -0.01,-1.57 -0.01,-3.14 0,-4.71 2.03,-4.4 5.6,-5.26 5.75,-2.26 5.05,0.31 1.98,-0.34 0,0 m -3.09,3.9 c -6.93,-4.07 -7.01,-15.59 -0.05,-19.68 3.73,-2.55 8.58,-1.61 12.27,0.53 -1.13,0.63 -2.36,1.06 -3.59,1.41 -1.84,2.29 -2.49,5.96 -5.5,6.99 -0.06,-2.44 -0.05,-4.88 -0.05,-7.32 -1.12,0.06 -2.22,0.12 -3.32,0.17 0.13,5.46 0.03,10.93 0.08,16.39 C 0.34,2.14 4.49,3.2 7.66,1.04 10.4,-1.79 8.75,-6.54 4.95,-7.33 c 1.6,-2.49 3.28,-4.94 4.67,-7.56 2.78,3.82 4.53,8.85 2.5,13.41 C 10.1,4.51 2.24,7.41 -3.09,3.9 M -1.37,8 c 7.47,2.13 16,-2.79 17.64,-10.43 2.21,-7.6 -3.13,-16.25 -10.93,-17.64 -8.42,-2.17 -17.64,5 -17.4,13.72 C -12.48,0.18 -7.73,6.52 -1.37,8"
       style="fill:#0066b2;fill-opacity:1;fill-rule:nonzero;stroke:none"
       transform="matrix(1.3333333,0,0,-1.3333333,814.3464,408.83987)"
       clip-path="url(#clipPath54)" />
    <path
       id="path55"
       d="M 0,0 C 6.04,-1.83 12.48,-0.56 18.69,-0.93 13.75,-22.46 8.73,-43.96 3.86,-65.51 c 10.66,-0.46 20.83,7.77 22.91,18.17 3.55,15.47 7.2,30.92 10.74,46.39 10.3,0.04 20.6,0.01 30.91,0.02 0.31,3.52 0.82,7.28 -0.74,10.6 -2,4.89 -7.23,8.12 -12.49,7.91 -21.07,-0.02 -42.14,0 -63.21,-0.01 C -9.8,10.8 -6.96,2.48 0,0 m -0.94,49.29 c 8.29,6.33 18.7,9.91 29.15,9.8 22.58,-0.04 45.16,-0.01 67.73,-0.02 -9.67,-42.02 -19.38,-84.03 -29.08,-126.04 -2.75,-11.91 -9.68,-22.86 -19.5,-30.18 -8.3,-6.31 -18.7,-9.87 -29.13,-9.79 -22.59,0.03 -45.17,0 -67.75,0.01 9.65,41.91 19.32,83.82 29.02,125.72 2.76,12 9.63,23.14 19.56,30.5"
       style="fill:#0db04b;fill-opacity:1;fill-rule:nonzero;stroke:none"
       transform="matrix(1.3333333,0,0,-1.3333333,695.72,293.4264)"
       clip-path="url(#clipPath56)" />
  </g>
</svg>
